<svg width="15" height="8" viewBox="0 0 15 8" fill="none" xmlns="http://www.w3.org/2000/svg">
<path id="Vector" fill-rule="evenodd" clip-rule="evenodd" d="M8.21906 7.54182C8.03153 7.72929 7.77723 7.8346 7.51206 7.8346C7.2469 7.8346 6.99259 7.72929 6.80506 7.54182L1.14806 1.88482C1.05255 1.79257 0.976369 1.68222 0.92396 1.56022C0.871551 1.43822 0.843965 1.307 0.842811 1.17422C0.841657 1.04144 0.866959 0.909758 0.91724 0.786862C0.967521 0.663966 1.04177 0.552313 1.13567 0.45842C1.22956 0.364528 1.34121 0.290275 1.46411 0.239994C1.587 0.189713 1.71868 0.164411 1.85146 0.165565C1.98424 0.166719 2.11546 0.194305 2.23747 0.246714C2.35947 0.299123 2.46982 0.375305 2.56206 0.470815L7.51206 5.42082L12.4621 0.470815C12.6507 0.288657 12.9033 0.187863 13.1655 0.190141C13.4277 0.19242 13.6785 0.297588 13.8639 0.482997C14.0493 0.668405 14.1545 0.919217 14.1567 1.18141C14.159 1.44361 14.0582 1.69621 13.8761 1.88482L8.21906 7.54182Z" fill="black"/>
</svg>
